<svg enable-background="new 0 0 41 18.415" height="18.415" viewBox="0 0 41 18.415" width="41" xmlns="http://www.w3.org/2000/svg" xmlns:xlink="http://www.w3.org/1999/xlink"><linearGradient id="a" gradientUnits="userSpaceOnUse" x1="20.5" x2="20.5" y1="0" y2="18.415"><stop offset="0" stop-color="#c8aa31"/><stop offset="1" stop-color="#ecd939"/></linearGradient><path d="m41 17.111c0 .72-.584 1.304-1.304 1.304h-38.392c-.721 0-1.304-.584-1.304-1.304v-15.807c0-.72.583-1.304 1.304-1.304h38.392c.72 0 1.304.584 1.304 1.304z" fill="url(#a)"/><path d="m7.786 15.452h-3.098v-12.64h3.097v12.64zm11.485 0h-2.643v-7.095l-1.279 7.095h-1.913l-1.312-7.095v7.095h-2.79v-12.64h3.986l1.036 5.963.718-5.963h4.197zm1.635 0v-12.64h3.465c2.063 0 2.564.204 3.154.612.589.409.884 1.036.884 1.882v7.651c0 .788-.275 1.4-.827 1.838-.55.438-1.213.657-3.193.657zm4.178-2.652v-7.412c0-.616-.668-.559-1.197-.559v8.49c.529 0 1.197.079 1.197-.519zm7.287 1.993c-.217-.094-.411.659-.411.659h-2.558v-12.64h3.168v2.894c.319-.359 1.209-.917 2.073-.877s1.992.678 1.913 1.738v7.351c0 .517-.228.925-.681 1.225-.363.158-.674.208-1.432.208s-1.856-.464-2.072-.558zm1.069-1.524.002-6.367c0-.311-.144-.467-.432-.467-.293 0-.44.149-.44.45l-.002 6.384c0 .312.147.528.44.528.288 0 .432-.217.432-.528z" fill="#231f1e"/></svg>